<svg width="214" height="256" viewBox="0 0 214 256" fill="none" xmlns="http://www.w3.org/2000/svg">
<path fill-rule="evenodd" clip-rule="evenodd" d="M75.0001 10.5V21H85.5001H96.0001V26.25V31.5H107H118V26.25V21H128.5H139V10.5V0H107H75.0001V10.5ZM171.229 32.269L164.009 39.538L168.24 43.77L172.472 48.002L167.795 52.679L163.117 57.357L153.037 52.615C147.492 50.007 138.579 46.695 133.228 45.254C124.51 42.907 121.736 42.637 106.5 42.655C91.1911 42.673 88.5171 42.943 79.6161 45.369C48.5371 53.84 23.7281 74.664 10.4331 103.44C-11.9179 151.816 4.34611 208.891 48.9051 238.448C83.7691 261.574 129.354 261.585 165.16 238.476C173.812 232.892 187.99 218.989 193.722 210.466C222.922 167.055 219.71 113.45 185.695 76.5L180.171 70.5L183.793 66.745L187.415 62.991L191.715 67.211L196.015 71.431L203.008 64.492C206.853 60.676 210 57.086 210 56.515C210 55.495 179.968 25 178.963 25C178.681 25 175.201 28.271 171.229 32.269ZM107 110.988V147.976L144.25 148.238L181.5 148.5L181.222 154.466C180.081 178.93 164.647 202.566 142.116 214.355C129.955 220.717 122.25 222.502 107 222.486C91.6061 222.471 83.5321 220.584 72.0001 214.306C46.9271 200.658 32.8591 177.005 32.8591 148.5C32.8591 125.256 42.7161 104 59.7851 90.431C71.2551 81.314 89.4701 74.301 102.25 74.082L107 74V110.988Z" fill="white"/>
</svg>
