<svg width="40" height="40" viewBox="0 0 40 40" fill="none" xmlns="http://www.w3.org/2000/svg">
<path d="M38 20.5C38 18.2019 37.5473 15.9262 36.6679 13.803C35.7884 11.6798 34.4994 9.75066 32.8744 8.12563C31.2493 6.50061 29.3202 5.21157 27.197 4.33211C25.0738 3.45265 22.7981 3 20.5 3C18.2019 3 15.9262 3.45265 13.803 4.33211C11.6798 5.21157 9.75066 6.50061 8.12563 8.12563C6.50061 9.75066 5.21156 11.6798 4.33211 13.803C3.45265 15.9262 3 18.2019 3 20.5L20.5 20.5H38Z" fill="#E43F3D"/>
<path d="M38 20.5C38 22.7981 37.5473 25.0738 36.6679 27.197C35.7884 29.3202 34.4994 31.2493 32.8744 32.8744C31.2493 34.4994 29.3202 35.7884 27.197 36.6679C25.0738 37.5473 22.7981 38 20.5 38C18.2019 38 15.9262 37.5473 13.803 36.6679C11.6798 35.7884 9.75066 34.4994 8.12563 32.8744C6.50061 31.2493 5.21156 29.3202 4.33211 27.197C3.45265 25.0738 3 22.7981 3 20.5L20.5 20.5H38Z" fill="white"/>
<path fill-rule="evenodd" clip-rule="evenodd" d="M25.6292 22.5C25.7083 22.1376 25.75 21.7612 25.75 21.375C25.75 21.0769 25.7252 20.7846 25.6774 20.5H36H38C38 21.1697 37.9616 21.8374 37.8853 22.5C37.7 24.1114 37.2911 25.6924 36.6679 27.197C35.7884 29.3202 34.4994 31.2493 32.8744 32.8744C31.2493 34.4994 29.3202 35.7884 27.197 36.6679C25.0738 37.5473 22.7981 38 20.5 38C18.2019 38 15.9262 37.5473 13.803 36.6679C11.6798 35.7884 9.75066 34.4994 8.12563 32.8744C6.50061 31.2493 5.21156 29.3202 4.33211 27.197C3.70891 25.6924 3.30003 24.1114 3.11466 22.5C3.03843 21.8374 3 21.1696 3 20.5H5L15.3226 20.5C15.2748 20.7846 15.25 21.0769 15.25 21.375C15.25 21.7612 15.2917 22.1376 15.3708 22.5L5.12957 22.5C5.30499 23.8481 5.65739 25.1702 6.17987 26.4316C6.95881 28.3121 8.10054 30.0208 9.53984 31.4602C10.9792 32.8995 12.6879 34.0412 14.5684 34.8201C16.449 35.5991 18.4645 36 20.5 36C22.5355 36 24.551 35.5991 26.4316 34.8201C28.3121 34.0412 30.0208 32.8995 31.4602 31.4602C32.8995 30.0208 34.0412 28.3121 34.8201 26.4316C35.3426 25.1702 35.695 23.8481 35.8704 22.5H25.6292Z" fill="#C42833"/>
<circle cx="20.5" cy="20.5" r="16.5" stroke="#C42833" stroke-width="2"/>
<path d="M25.5 21.25C25.5 18.3505 23.1495 16 20.25 16C17.3505 16 15 18.3505 15 21.25C15 24.1495 17.3505 26.5 20.25 26.5C23.1495 26.5 25.5 24.1495 25.5 21.25Z" fill="#C42833"/>
<circle cx="20.5" cy="21.5" r="4.5" fill="white" stroke="#C42833" stroke-width="2"/>
<circle cx="20.5" cy="21.5" r="1.75" fill="#C42833" stroke="#C42833" stroke-width="0.5"/>
</svg>
