<svg width="40" height="40" viewBox="0 0 40 40" fill="none" xmlns="http://www.w3.org/2000/svg">
<path d="M26 23.5H28.5L34 19.5V37H26V23.5Z" fill="#E43F3D"/>
<path d="M14 23.5H11.5L6 19.5V37H14V23.5Z" fill="#E43F3D"/>
<rect x="5" y="7" width="30" height="30" rx="3" stroke="#C42833" stroke-width="2"/>
<path d="M9.75 4C9.75 3.30964 10.3096 2.75 11 2.75H16C16.6904 2.75 17.25 3.30964 17.25 4V6.25H9.75V4Z" stroke="#C42833" stroke-width="1.5"/>
<path d="M22.75 4C22.75 3.30964 23.3096 2.75 24 2.75H29C29.6904 2.75 30.25 3.30964 30.25 4V6.25H22.75V4Z" stroke="#C42833" stroke-width="1.5"/>
<rect x="14" y="23" width="1" height="14" fill="#C42833"/>
<rect x="25" y="23" width="1" height="14" fill="#C42833"/>
<path d="M11.8533 22.6434C10.82 22.6434 4 18 4 18V19.6151C4 19.6151 10.2 23.829 11.2333 23.8547C17.64 24.014 20.5333 24.0801 28.3867 23.8547C29.8327 23.8132 35 19.6151 35 19.6151V18C35 18 29.0067 22.6434 27.1467 22.6434H11.8533Z" fill="#C42833"/>
<path fill-rule="evenodd" clip-rule="evenodd" d="M13.2063 22.648C13.7062 19.3592 16.546 16.8391 19.9744 16.8391C23.4028 16.8391 26.2426 19.3592 26.7425 22.648H23.3462C22.9033 21.2064 21.5613 20.1584 19.9744 20.1584C18.3876 20.1584 17.0455 21.2064 16.6026 22.648H13.2063Z" fill="#E43F3D"/>
</svg>
