<svg width="71" height="104" viewBox="0 0 71 104" fill="none" xmlns="http://www.w3.org/2000/svg">
<path fill-rule="evenodd" clip-rule="evenodd" d="M17 28.609V57.219H8.5H0V63.219V69.219H8.5H17V74.719V80.219H8.5H0V86.219V92.219H8.5H17V97.719V103.219H26H35V97.719V92.219H46.5H58V86.219V80.219H46.5H35V74.719V69.219H46.5H58V63.219V57.219H46.5H35V52.36V47.501L43.275 46.985C61.597 45.842 70.472 37.553 70.39 21.659C70.344 12.685 67.254 7.595 59.5 3.722C53.602 0.775 53.188 0.718 35.25 0.362L17 0V28.609ZM49.923 15.808C52.581 18.044 53 19.058 53 23.252C53 30.772 50.136 33.488 41.635 34.03L35 34.452V23.835V13.219H40.923C45.837 13.219 47.371 13.66 49.923 15.808Z" fill="#393b43"/>
</svg>
