<svg width="221" height="221" viewBox="0 0 221 221" fill="none" xmlns="http://www.w3.org/2000/svg">
<path fill-rule="evenodd" clip-rule="evenodd" d="M98.6103 0.413663C98.0652 0.597079 93.3111 1.48838 88.0446 2.39456L78.471 4.04134L77.3907 10.4094C76.7971 13.9121 75.8229 19.6595 75.2263 23.1811L74.1401 29.5848L68.5564 32.7376C65.4852 34.4716 60.7013 37.5678 57.9264 39.6181L52.8809 43.3469L40.1864 39.8799C32.9893 37.9148 27.2254 36.8074 26.8775 37.323C26.5395 37.8236 23.2522 42.5201 19.5734 47.7608C15.8936 53.0006 12.8838 57.584 12.8838 57.9449C12.8838 58.3058 16.2405 63.264 20.3434 68.9618L27.8031 79.3233L25.8537 85.6388C24.7804 89.1118 23.606 94.5815 23.2433 97.7918L22.5832 103.629L11.2911 109.947C2.39539 114.924 0 116.713 0 118.381C0 120.596 3.75115 141.817 4.22686 142.293C4.48156 142.547 27.8121 146.657 29.0043 146.657C29.3006 146.657 30.9735 149.222 32.7218 152.358C34.471 155.493 37.6007 160.337 39.678 163.121L43.4549 168.182L40.0942 179.975C38.2459 186.461 36.7256 192.214 36.7157 192.759C36.6989 193.719 56.6439 208.126 57.9888 208.126C58.3555 208.126 63.3157 204.768 69.0113 200.664L79.3689 193.201L85.6819 195.151C89.1536 196.225 94.6292 197.401 97.8482 197.765L103.7 198.427L110.024 209.721C114.896 218.421 116.816 221.012 118.381 221C120.564 220.984 141.872 217.229 142.319 216.781C142.571 216.531 146.677 193.176 146.677 191.999C146.677 191.703 149.241 190.029 152.375 188.28C155.509 186.531 160.336 183.411 163.101 181.346L168.129 177.593L180.774 181.046C187.728 182.946 193.551 184.35 193.712 184.168C195.161 182.528 208.122 163.427 208.122 162.931C208.122 162.573 204.789 157.705 200.715 152.114L193.308 141.946L195.76 132.277C197.109 126.959 198.215 121.439 198.218 120.009C198.223 117.731 199.63 116.613 209.609 110.965C217.882 106.283 220.996 104.004 221 102.63C221.003 101.59 220.07 95.7177 218.927 89.5787L216.847 78.4171L210.255 77.2978C206.629 76.6821 200.892 75.7085 197.507 75.1355C191.596 74.1331 191.245 73.9081 188.693 69.4773C187.233 66.9392 184.116 62.1387 181.769 58.8084L177.501 52.7537L180.989 40.1238C182.908 33.1778 184.334 27.3868 184.159 27.2549C180.091 24.1913 163.496 12.8126 163.096 12.8126C162.792 12.8126 157.915 16.1478 152.258 20.2236L141.973 27.6336L132.305 25.1808C126.987 23.8315 121.445 22.727 119.988 22.727C117.642 22.727 116.613 21.4282 110.956 11.3254C105.398 1.40015 104.249 -0.0661938 102.086 0.00221555C100.719 0.0448474 99.1554 0.230247 98.6103 0.413663ZM133.985 39.291C159.677 48.208 179.611 70.8465 184.221 96.3413L185.072 101.051H166.552H148.032L145.755 95.5541C142.529 87.7684 135.078 79.9965 127.047 76.0406C120.977 73.0515 119.711 72.7976 111.02 72.8264C103.559 72.8512 100.391 73.333 95.8878 75.1265C87.671 78.4013 79.9625 85.8261 76.0419 94.2425L72.8715 101.051H54.4101H35.9486L36.8832 95.9061C41.115 72.6152 60.4367 49.5434 83.2489 40.5432C93.0802 36.6637 99.8223 35.6286 112.981 35.9746C123.682 36.2562 126.542 36.7073 133.985 39.291ZM121.308 87.6583C130.437 92.0593 135.279 99.967 135.279 110.469C135.279 120.953 130.502 128.772 121.308 133.335C115.994 135.973 105.012 135.973 99.6975 133.335C75.2025 121.177 84.3153 84.2359 111.494 85.5138C114.765 85.6675 119.182 86.6322 121.308 87.6583ZM73.3383 120.225C73.3383 120.956 74.6842 124.248 76.3293 127.542C79.9754 134.842 87.3043 141.914 94.9255 145.487C99.8877 147.814 101.824 148.144 110.503 148.144C119.182 148.144 121.118 147.814 126.08 145.487C133.702 141.914 141.031 134.842 144.677 127.542C146.322 124.248 147.668 120.956 147.668 120.225C147.668 119.161 151.408 118.897 166.435 118.897H185.203L184.654 122.614C182.713 135.734 174.829 151.181 164.591 161.919C150.072 177.148 131.198 185.309 110.503 185.309C73.927 185.309 42.8256 158.824 36.3005 122.119L35.7276 118.897H54.533C69.5921 118.897 73.3383 119.161 73.3383 120.225Z" fill="white"/>
</svg>
