<svg width="155" height="156" viewBox="0 0 155 156" fill="none" xmlns="http://www.w3.org/2000/svg">
<path fill-rule="evenodd" clip-rule="evenodd" d="M67.544 0.971558C58.025 2.07956 46.455 6.00856 37.785 11.0786C29.347 16.0126 15.211 30.0106 10.362 38.2336C5.898 45.8036 1.378 58.6896 0.610001 66.0336L0 71.8696H24.959H49.917L52.192 66.3806C54.967 59.6846 62.289 52.7376 68.969 50.4616C76.768 47.8046 84.109 48.3516 91.417 52.1346C98.158 55.6236 104.293 62.4176 105.962 68.2416L106.859 71.3696L130.572 71.6376C157.923 71.9466 155.45 73.2876 152.239 59.8936C144.606 28.0496 118.037 4.61356 85.319 0.863558C80.626 0.326558 76.335 -0.059441 75.785 0.00755903C75.235 0.074559 71.527 0.508558 67.544 0.971558ZM70.377 64.0306C64.584 68.0056 62.785 71.2856 62.785 77.8696C62.785 84.4536 64.584 87.7336 70.377 91.7086C73.19 93.6386 74.756 93.9786 79.35 93.6576C88.843 92.9946 94.62 87.0046 94.653 77.7916C94.685 68.7986 88.863 62.7476 79.548 62.0956C74.737 61.7596 73.222 62.0786 70.377 64.0306ZM0.610001 89.7056C1.378 97.0496 5.898 109.936 10.362 117.506C15.211 125.729 29.347 139.727 37.785 144.661C82.567 170.848 140.147 146.29 152.239 95.8456C155.45 82.4526 157.916 83.7926 130.618 84.1016L106.951 84.3696L105.58 88.4846C103.698 94.1306 98.538 99.8596 92.144 103.402C87.374 106.044 85.851 106.369 78.285 106.358C71.517 106.348 68.961 105.907 65.74 104.192C60.453 101.377 53.679 93.9546 51.272 88.3396L49.356 83.8696H24.678H0L0.610001 89.7056Z" fill="white"/>
</svg>
