<svg width="40" height="40" viewBox="0 0 40 40" fill="none" xmlns="http://www.w3.org/2000/svg">
<path d="M7 25.7686V22.2515C7 22.161 7.11058 22.1171 7.1727 22.1829L8.93122 24.0448C8.96919 24.085 8.96732 24.1484 8.92705 24.1863L7.16854 25.8414C7.10472 25.9014 7 25.8562 7 25.7686Z" fill="#E43F3D" stroke="#C42833" stroke-width="0.5"/>
<rect x="4" y="4" width="33" height="33" rx="4" stroke="#C42833" stroke-width="2"/>
<circle cx="11" cy="10" r="3.5" fill="#E43F3D" stroke="#C42833"/>
<circle cx="31.5" cy="7.5" r="1.5" fill="#E43F3D"/>
<circle cx="24.75" cy="15.75" r="0.75" fill="#E43F3D"/>
<circle cx="27.75" cy="15.75" r="0.75" fill="#E43F3D"/>
<circle cx="33.75" cy="19.75" r="0.75" fill="#E43F3D"/>
<path d="M14.8247 17H5C4.44772 17 4 17.4477 4 18C4 18.5523 4.44772 19 5 19H15.2766C15.4619 19 15.6435 18.9485 15.8013 18.8513L23.0254 14.3987C23.1831 14.3015 23.3648 14.25 23.5501 14.25H29.9425C30.2998 14.25 30.63 14.4407 30.8086 14.7502L31.818 16.4998C31.9966 16.8093 32.3268 17 32.6842 17H37C37.5523 17 38 16.5523 38 16C38 15.4477 37.5523 15 37 15H33.5774C33.2273 15 32.9027 14.8169 32.7216 14.5173L31.4918 12.4827C31.3107 12.1831 30.9861 12 30.636 12H23.5487C23.3643 12 23.1834 12.051 23.0262 12.1473L15.3471 16.8527C15.1899 16.949 15.0091 17 14.8247 17Z" fill="#C42833"/>
<circle cx="8.5" cy="32.5" r="1.5" fill="#E43F3D"/>
<rect x="15" y="31" width="11" height="3" rx="1.5" fill="#E43F3D"/>
</svg>
