<svg width="160" height="160" viewBox="0 0 160 160" fill="none" xmlns="http://www.w3.org/2000/svg">
<rect width="160" height="160" rx="30" fill="white"/>
<path fill-rule="evenodd" clip-rule="evenodd" d="M72.2014 20.7509C64.8446 21.6072 55.9027 24.6437 49.2021 28.5621C42.6808 32.3753 31.7558 43.1937 28.0083 49.5488C24.5583 55.3993 21.065 65.3582 20.4714 71.034L20 75.5444H39.2896H58.5784L60.3366 71.3022C62.4812 66.1272 68.14 60.7582 73.3027 58.9992C79.3301 56.9458 85.0036 57.3685 90.6516 60.2922C95.8614 62.9887 100.603 68.2394 101.893 72.7405L102.586 75.158L120.913 75.3651C142.051 75.6039 140.14 76.6403 137.658 66.2887C131.759 41.6781 111.225 23.5656 85.9388 20.6674C82.3118 20.2524 78.9955 19.9541 78.5704 20.0058C78.1454 20.0576 75.2796 20.393 72.2014 20.7509ZM74.3909 69.486C69.9137 72.5581 68.5234 75.093 68.5234 80.1815C68.5234 85.2699 69.9137 87.8049 74.3909 90.877C76.5649 92.3686 77.7752 92.6313 81.3257 92.3832C88.6623 91.8708 93.1271 87.2415 93.1526 80.1212C93.1773 73.171 88.6778 68.4944 81.4787 67.9905C77.7605 67.7309 76.5896 67.9774 74.3909 69.486ZM20.4714 89.3289C21.065 95.0047 24.5583 104.964 28.0083 110.814C31.7558 117.169 42.6808 127.988 49.2021 131.801C83.8119 152.04 128.313 133.06 137.658 94.0742C140.14 83.7235 142.045 84.7591 120.948 84.9979L102.657 85.205L101.598 88.3853C100.143 92.7488 96.1551 97.1765 91.2135 99.9139C87.527 101.956 86.3499 102.207 80.5026 102.198C75.2719 102.191 73.2965 101.85 70.8072 100.524C66.7211 98.3489 61.4858 92.6128 59.6256 88.2732L58.1448 84.8186H39.0724H20L20.4714 89.3289Z" fill="#E3313D"/>
</svg>
