<svg width="20" height="21" viewBox="0 0 20 21" fill="none" xmlns="http://www.w3.org/2000/svg">
<path d="M9.99984 1.75C11.0942 1.75 12.1778 1.97633 13.1889 2.41605C14.1999 2.85578 15.1186 3.5003 15.8924 4.31282C16.6662 5.12533 17.28 6.08992 17.6988 7.15152C18.1176 8.21312 18.3332 9.35093 18.3332 10.5C18.3332 12.8206 17.4552 15.0462 15.8924 16.6872C14.3296 18.3281 12.21 19.25 9.99984 19.25C8.90549 19.25 7.82186 19.0237 6.81081 18.5839C5.79976 18.1442 4.8811 17.4997 4.10728 16.6872C2.54448 15.0462 1.6665 12.8206 1.6665 10.5C1.6665 8.17936 2.54448 5.95376 4.10728 4.31282C5.67008 2.67187 7.7897 1.75 9.99984 1.75ZM9.99984 3.5C6.59984 3.5 3.7915 6.16875 3.38317 9.625H6.77484C7.1415 8.11125 8.44984 7 9.99984 7C11.5498 7 12.8582 8.11125 13.2248 9.625H16.6165C16.2082 6.16875 13.3998 3.5 9.99984 3.5ZM9.99984 17.5C13.3998 17.5 16.2082 14.8313 16.6165 11.375H13.2248C12.8582 12.8888 11.5498 14 9.99984 14C8.44984 14 7.1415 12.8888 6.77484 11.375H3.38317C3.7915 14.8313 6.59984 17.5 9.99984 17.5ZM9.99984 8.75C9.55781 8.75 9.13389 8.93437 8.82133 9.26256C8.50877 9.59075 8.33317 10.0359 8.33317 10.5C8.33317 10.9641 8.50877 11.4092 8.82133 11.7374C9.13389 12.0656 9.55781 12.25 9.99984 12.25C10.4419 12.25 10.8658 12.0656 11.1783 11.7374C11.4909 11.4092 11.6665 10.9641 11.6665 10.5C11.6665 10.0359 11.4909 9.59075 11.1783 9.26256C10.8658 8.93437 10.4419 8.75 9.99984 8.75Z" fill="white"/>
</svg>
