<svg width="192" height="192" viewBox="0 0 192 192" fill="none" xmlns="http://www.w3.org/2000/svg">
<rect width="192" height="192" rx="20" fill="white"/>
<path fill-rule="evenodd" clip-rule="evenodd" d="M86.544 18.9716C77.025 20.0796 65.455 24.0086 56.785 29.0786C48.347 34.0126 34.211 48.0106 29.362 56.2336C24.898 63.8036 20.378 76.6896 19.61 84.0336L19 89.8696H43.959H68.917L71.192 84.3806C73.967 77.6846 81.289 70.7376 87.969 68.4616C95.768 65.8046 103.109 66.3516 110.417 70.1346C117.158 73.6236 123.293 80.4176 124.962 86.2416L125.859 89.3696L149.572 89.6376C176.923 89.9466 174.45 91.2876 171.239 77.8936C163.606 46.0496 137.037 22.6136 104.319 18.8636C99.626 18.3266 95.335 17.9406 94.785 18.0076C94.235 18.0746 90.527 18.5086 86.544 18.9716ZM89.377 82.0306C83.584 86.0056 81.785 89.2856 81.785 95.8696C81.785 102.454 83.584 105.734 89.377 109.709C92.19 111.639 93.756 111.979 98.35 111.658C107.843 110.995 113.62 105.005 113.653 95.7916C113.685 86.7986 107.863 80.7476 98.548 80.0956C93.737 79.7596 92.222 80.0786 89.377 82.0306ZM19.61 107.706C20.378 115.05 24.898 127.936 29.362 135.506C34.211 143.729 48.347 157.727 56.785 162.661C101.567 188.848 159.147 164.29 171.239 113.846C174.45 100.453 176.916 101.793 149.618 102.102L125.951 102.37L124.58 106.485C122.698 112.131 117.538 117.86 111.144 121.402C106.374 124.044 104.851 124.369 97.285 124.358C90.517 124.348 87.961 123.907 84.74 122.192C79.453 119.377 72.679 111.955 70.272 106.34L68.356 101.87H43.678H19L19.61 107.706Z" fill="#DC0A2D"/>
</svg>
